HIERARCHY
ROOT Hips
{
	OFFSET -0.001795 -0.223333 0.028219
	CHANNELS 6 Xposition Yposition Zposition Zrotation Yrotation Xrotation 
	JOINT LeftUpLeg
	{
		OFFSET 0.069520 -0.091406 -0.006815
		CHANNELS 3 Zrotation Yrotation Xrotation
		JOINT LeftLeg
		{
			OFFSET 0.034277 -0.375199 -0.004496
			CHANNELS 3 Zrotation Yrotation Xrotation
			JOINT LeftFoot
			{
				OFFSET -0.013596 -0.397961 -0.043693
				CHANNELS 3 Zrotation Yrotation Xrotation
				JOINT LeftToe
				{
					OFFSET 0.026358 -0.055791 0.119288
					CHANNELS 3 Zrotation Yrotation Xrotation
					End Site
					{
						OFFSET 0.000000 0.000000 0.000000
					}
				}
			}
		}
	}
	JOINT RightUpLeg
	{
		OFFSET -0.067670 -0.090522 -0.004320
		CHANNELS 3 Zrotation Yrotation Xrotation
		JOINT RightLeg
		{
			OFFSET -0.038290 -0.382569 -0.008850
			CHANNELS 3 Zrotation Yrotation Xrotation
			JOINT RightFoot
			{
				OFFSET 0.015774 -0.398415 -0.042312
				CHANNELS 3 Zrotation Yrotation Xrotation
				JOINT RightToe
				{
					OFFSET -0.025372 -0.048144 0.123348
					CHANNELS 3 Zrotation Yrotation Xrotation
					End Site
					{
						OFFSET 0.000000 0.000000 0.000000
					}
				}
			}
		}
	}
	JOINT Spine
	{
		OFFSET -0.002533 0.108963 -0.026696
		CHANNELS 3 Zrotation Yrotation Xrotation
		JOINT Spine1
		{
			OFFSET 0.005487 0.135180 0.001092
			CHANNELS 3 Zrotation Yrotation Xrotation
			JOINT Spine2
			{
				OFFSET 0.001457 0.052922 0.025425
				CHANNELS 3 Zrotation Yrotation Xrotation
				JOINT Neck
				{
					OFFSET -0.002778 0.213870 -0.042857
					CHANNELS 3 Zrotation Yrotation Xrotation
					JOINT Head
					{
						OFFSET 0.005152 0.064970 0.051349
						CHANNELS 3 Zrotation Yrotation Xrotation
						End Site
						{
							OFFSET 0.000000 0.000000 0.000000
						}
					}
				}
				JOINT LeftShoulder
				{
					OFFSET 0.078845 0.121749 -0.034090
					CHANNELS 3 Zrotation Yrotation Xrotation
					JOINT LeftArm
					{
						OFFSET 0.090977 0.030469 -0.008868
						CHANNELS 3 Zrotation Yrotation Xrotation
						JOINT LeftForeArm
						{
							OFFSET 0.259612 -0.012772 -0.027456
							CHANNELS 3 Zrotation Yrotation Xrotation
							JOINT LeftHand
							{
								OFFSET 0.249234 0.008986 -0.001171
								CHANNELS 3 Zrotation Yrotation Xrotation
								End Site
								{
									OFFSET 0.000000 0.000000 0.000000
								}
							}
						}
					}
				}
				JOINT RightShoulder
				{
					OFFSET -0.081759 0.118833 -0.038615
					CHANNELS 3 Zrotation Yrotation Xrotation
					JOINT RightArm
					{
						OFFSET -0.096012 0.032551 -0.009143
						CHANNELS 3 Zrotation Yrotation Xrotation
						JOINT RightForeArm
						{
							OFFSET -0.253742 -0.013329 -0.021401
							CHANNELS 3 Zrotation Yrotation Xrotation
							JOINT RightHand
							{
								OFFSET -0.255298 0.007772 -0.005559
								CHANNELS 3 Zrotation Yrotation Xrotation
								End Site
								{
									OFFSET 0.000000 0.000000 0.000000
								}
							}
						}
					}
				}
			}
		}
	}
}
MOTION
Frames: 15
Frame Time: 0.050000
0.000000 0.945138 0.000000 -0.110965 -2.993302 3.753610 2.062859 -0.079399 -0.614819 3.661796 -0.340576 -1.105589 13.956981 24.474133 27.978838 0.000000 0.000000 0.000000 -4.479806 0.296606 -2.064532 1.523420 -0.121937 1.001421 4.540890 -0.011403 19.025107 0.000000 0.000000 0.000000 1.104420 0.132373 -2.959452 -2.357064 1.125074 0.259837 0.204448 2.548116 4.616454 -0.670358 0.953728 -5.449001 0.000000 0.000000 0.000000 -16.270537 0.214696 -1.842678 -25.650942 12.773319 -5.073490 -90.338416 -28.999025 30.429435 0.000000 0.000000 0.000000 14.898718 0.588148 -0.905851 30.238698 -13.202612 -5.622753 82.869454 32.203976 28.792121 0.000000 0.000000 0.000000 
0.000410 0.942958 0.001192 -0.124932 -2.631585 4.032987 1.991066 -0.043400 -0.111492 3.868375 -0.265435 -2.480036 13.856537 24.456462 27.261674 0.000000 0.000000 0.000000 -4.096253 0.284169 -2.003281 0.886423 -0.066989 0.629480 4.152130 -0.232870 18.158945 0.000000 0.000000 0.000000 0.615737 0.126056 -2.902904 -3.018663 1.441215 0.395093 1.173090 2.538714 3.842790 -2.147153 2.087023 -6.735066 0.000000 0.000000 0.000000 -15.780124 0.938850 -2.161172 -24.343835 12.747737 -4.738502 -93.315170 -27.648124 30.455427 0.000000 0.000000 0.000000 13.597253 -0.043382 -1.129634 30.522910 -14.317326 -5.866089 84.677848 32.113455 29.575916 0.000000 0.000000 0.000000 
0.000652 0.942409 0.002108 0.070387 -1.483846 4.319714 2.125815 -0.046089 -0.046802 3.478332 -0.163391 -3.410226 13.155666 23.817831 26.568415 0.000000 0.000000 0.000000 -4.138184 0.277780 -1.985272 0.800188 -0.065120 0.478605 3.514763 -1.018061 17.937907 0.000000 0.000000 0.000000 0.420111 0.160814 -3.730558 -1.549018 0.739117 -0.617661 -0.384576 2.785265 5.297684 -1.141305 1.487476 -7.275603 0.000000 0.000000 0.000000 -16.062550 0.425356 -2.139580 -24.117045 12.042382 -4.594931 -93.134875 -28.125392 30.424895 0.000000 0.000000 0.000000 14.699770 0.350910 -0.768214 30.805755 -14.714215 -6.139380 81.971015 33.987444 30.500809 0.000000 0.000000 0.000000 
0.000633 0.942379 0.002773 0.329627 -0.769937 4.767932 2.247531 -0.076560 -0.364241 2.912087 -0.086352 -3.875853 12.694909 23.376342 26.275361 0.000000 0.000000 0.000000 -4.355113 0.296654 -2.238146 0.842554 -0.075476 0.336730 3.122643 -1.546204 17.923925 0.000000 0.000000 0.000000 -0.164432 0.197603 -4.833027 -1.885515 0.892420 0.096808 0.042429 1.438775 4.232606 -1.559647 1.639497 -6.075477 0.000000 0.000000 0.000000 -16.113346 1.300567 -2.399519 -23.078703 11.836986 -4.328559 -92.855573 -26.635637 29.023153 0.000000 0.000000 0.000000 14.472865 0.887533 -0.713908 30.257053 -15.278589 -6.030203 83.967944 33.112824 30.238524 0.000000 0.000000 0.000000 
0.000314 0.942838 0.003115 0.438610 -0.551607 4.554908 1.976020 -0.042560 0.018661 3.262914 -0.092813 -4.177797 12.478655 23.145564 26.397412 0.000000 0.000000 0.000000 -4.451150 0.235852 -1.278444 0.885159 -0.118682 -0.864551 3.127790 -1.615030 18.229101 0.000000 0.000000 0.000000 -0.085147 0.194445 -4.757174 -1.764164 0.832351 0.499230 -0.437707 1.085080 3.574087 -1.887866 1.826879 -5.407739 0.000000 0.000000 0.000000 -15.743384 0.775451 -2.081190 -23.473031 11.836319 -4.393407 -92.502484 -27.048609 29.376048 0.000000 0.000000 0.000000 14.730257 0.910693 -0.767420 29.838549 -14.561684 -5.747778 83.248478 32.876430 29.583748 0.000000 0.000000 0.000000 
-0.000220 0.943272 0.002962 0.465454 -0.373808 4.551386 2.237725 -0.023641 0.371546 2.846770 -0.020852 -4.873540 12.277154 22.924939 26.492439 0.000000 0.000000 0.000000 -4.557389 0.206962 -0.780161 1.125596 -0.167494 -1.724293 3.144557 -1.680053 18.568063 0.000000 0.000000 0.000000 -0.059884 0.200436 -4.910689 -1.932669 0.915743 -0.102853 -0.411523 0.756665 4.274234 -2.016675 1.916301 -5.391708 0.000000 0.000000 0.000000 -15.657562 0.429705 -1.831783 -23.759908 11.382253 -4.424998 -92.065949 -26.572774 28.722594 0.000000 0.000000 0.000000 14.692060 1.239929 -0.628133 30.394467 -14.185793 -5.827330 83.664675 32.533594 29.388945 0.000000 0.000000 0.000000 
-0.000904 0.943488 0.002162 0.360488 -0.455311 4.429098 2.301778 -0.018523 0.451610 3.001548 -0.033252 -4.844390 12.308777 22.947599 26.608764 0.000000 0.000000 0.000000 -4.337202 0.198797 -0.757946 1.001691 -0.153979 -1.644885 3.199729 -1.618843 18.607562 0.000000 0.000000 0.000000 -0.048303 0.200194 -4.890282 -1.767981 0.837428 0.043047 -0.553510 0.659989 4.152104 -2.018909 1.915999 -5.474210 0.000000 0.000000 0.000000 -15.966864 0.210715 -1.739796 -23.470441 11.088985 -4.317644 -91.628760 -26.207838 28.151940 0.000000 0.000000 0.000000 15.362576 1.799504 -0.424789 30.104693 -14.017539 -5.719069 82.990635 32.517180 28.990260 0.000000 0.000000 0.000000 
-0.001611 0.943730 0.001151 0.116114 -0.690089 4.438668 2.352661 -0.023414 0.387900 3.422411 -0.065723 -4.788430 12.451442 23.077569 26.831924 0.000000 0.000000 0.000000 -4.013773 0.208293 -1.019577 0.935723 -0.139773 -1.388452 3.335802 -1.469167 18.698659 0.000000 0.000000 0.000000 0.167996 0.202690 -4.817182 -1.808624 0.857223 0.006535 -0.593924 0.803824 3.860463 -1.665747 1.654947 -5.426494 0.000000 0.000000 0.000000 -15.916009 0.109646 -1.699231 -23.046905 10.728060 -4.161115 -91.635453 -25.974347 27.885732 0.000000 0.000000 0.000000 15.524236 1.961173 -0.354038 30.015150 -13.620342 -5.605432 82.516014 31.698470 27.991997 0.000000 0.000000 0.000000 
-0.002291 0.943651 0.000148 -0.059569 -0.803426 4.439817 2.536963 -0.028058 0.379553 3.498282 -0.067545 -4.845440 12.533410 23.154789 26.877870 0.000000 0.000000 0.000000 -3.789211 0.224391 -1.340606 0.937014 -0.126407 -0.963498 3.371601 -1.402597 18.625207 0.000000 0.000000 0.000000 0.169061 0.206304 -4.884072 -1.637956 0.776606 0.000185 -0.649275 0.679871 3.765464 -1.459985 1.488042 -5.276004 0.000000 0.000000 0.000000 -16.027770 0.361682 -1.806462 -22.572207 10.242501 -3.995790 -92.078975 -25.642408 27.790398 0.000000 0.000000 0.000000 15.816447 2.293389 -0.244624 29.476711 -13.476329 -5.448463 82.165623 30.759082 26.858978 0.000000 0.000000 0.000000 
-0.002892 0.943765 -0.000628 -0.170316 -1.189762 4.480675 2.463767 -0.019789 0.449161 3.835512 -0.080498 -5.011137 12.741111 23.336574 27.189543 0.000000 0.000000 0.000000 -3.557516 0.225032 -1.391537 0.727014 -0.112342 -1.151051 3.573785 -1.152901 18.669740 0.000000 0.000000 0.000000 0.085720 0.210522 -4.973861 -1.530117 0.726602 -0.074594 -0.742791 0.848094 3.677168 -1.133175 1.222924 -4.857208 0.000000 0.000000 0.000000 -15.982601 0.412605 -1.827629 -21.871908 10.232005 -3.848279 -92.618946 -25.568949 27.959677 0.000000 0.000000 0.000000 16.391696 2.666921 -0.098697 28.556831 -13.539496 -5.258100 82.030084 30.083267 26.133051 0.000000 0.000000 0.000000 
-0.003395 0.943788 -0.001273 -0.234483 -1.586925 4.519057 2.577244 -0.006036 0.660614 3.737362 -0.049297 -5.402753 12.943574 23.508286 27.447146 0.000000 0.000000 0.000000 -3.630826 0.224206 -1.308770 0.956708 -0.145284 -1.559622 3.813350 -0.864381 18.774758 0.000000 0.000000 0.000000 0.103653 0.232640 -5.426636 -1.524423 0.724404 -0.062214 -0.692322 0.781915 3.852039 -0.910087 1.050794 -4.921339 0.000000 0.000000 0.000000 -15.833272 0.845408 -1.962696 -21.189918 10.116159 -3.712879 -93.490897 -25.531209 28.437827 0.000000 0.000000 0.000000 16.508902 2.871149 -0.064063 27.945432 -13.434418 -5.101961 81.930962 29.247645 25.179509 0.000000 0.000000 0.000000 
-0.003724 0.943867 -0.001904 -0.402024 -1.703696 4.491529 2.745169 0.001920 0.823918 3.784732 -0.035203 -5.661152 12.999784 23.554820 27.553102 0.000000 0.000000 0.000000 -3.447798 0.218779 -1.295927 0.974104 -0.148779 -1.630107 3.903186 -0.773274 18.866381 0.000000 0.000000 0.000000 -0.121697 0.233700 -5.557051 -1.160293 0.551272 0.066301 -0.803982 0.703078 3.674065 -0.568859 0.775105 -4.633517 0.000000 0.000000 0.000000 -15.468465 1.220934 -2.091867 -20.435095 10.262807 -3.575666 -94.684104 -24.975926 28.411735 0.000000 0.000000 0.000000 16.580239 2.610992 -0.232149 27.346034 -13.376439 -4.949683 81.701989 28.426952 24.262829 0.000000 0.000000 0.000000 
-0.003802 0.944006 -0.002538 -0.554710 -1.746303 4.656377 2.800515 -0.009595 0.689656 3.986838 -0.038021 -5.792322 13.029273 23.576236 27.654891 0.000000 0.000000 0.000000 -3.173183 0.219778 -1.393017 0.785243 -0.140001 -1.864188 3.949693 -0.758253 19.001147 0.000000 0.000000 0.000000 -0.278867 0.239866 -5.785713 -0.995745 0.472111 0.165847 -0.510428 0.376696 3.398399 -0.604604 0.785658 -4.659224 0.000000 0.000000 0.000000 -15.099504 1.459288 -2.097665 -19.806357 10.503124 -3.479627 -95.866238 -24.213448 28.253171 0.000000 0.000000 0.000000 16.448443 2.494618 -0.381757 26.718234 -13.612829 -4.825070 81.436377 27.731322 23.350826 0.000000 0.000000 0.000000 
-0.003686 0.944137 -0.003226 -0.626209 -1.739760 4.851716 2.778594 -0.017393 0.586205 4.155252 -0.027717 -6.068010 13.013042 23.551210 27.755017 0.000000 0.000000 0.000000 -2.957239 0.218801 -1.440804 0.529378 -0.131595 -2.243207 3.967793 -0.781151 19.133314 0.000000 0.000000 0.000000 -0.584418 0.238719 -5.944494 -0.636109 0.299239 0.304659 -0.455841 0.254757 2.920094 -0.559658 0.749099 -4.690395 0.000000 0.000000 0.000000 -14.406746 1.881303 -2.216517 -19.356782 10.355572 -3.356255 -96.733236 -23.291929 27.634881 0.000000 0.000000 0.000000 16.246619 2.153095 -0.577510 26.587712 -13.628358 -4.770774 81.475492 27.389554 23.008866 0.000000 0.000000 0.000000 
-0.003439 0.944254 -0.003825 -0.713254 -1.891471 5.035589 2.745273 -0.019043 0.556546 4.325530 -0.014085 -6.387492 13.088865 23.609110 27.928808 0.000000 0.000000 0.000000 -2.876363 0.236197 -1.678186 0.495470 -0.130345 -2.290769 4.056199 -0.703814 19.236542 0.000000 0.000000 0.000000 -0.808546 0.236019 -5.987853 -0.383426 0.181364 0.182601 -0.358334 0.123202 2.889102 -0.619269 0.791275 -4.814973 0.000000 0.000000 0.000000 -14.170628 2.120681 -2.266177 -18.985196 10.162399 -3.264399 -97.156444 -22.596446 27.098294 0.000000 0.000000 0.000000 16.009928 1.998397 -0.685790 26.712575 -13.449689 -4.752286 81.189109 27.519597 22.939506 0.000000 0.000000 0.000000 
